<mxfile host="app.diagrams.net" agent="Mozilla/5.0 (Windows NT 10.0; Win64; x64) AppleWebKit/537.36 (KHTML, like Gecko) Chrome/129.0.0.0 Safari/537.36 Edg/129.0.0.0" version="24.7.17">
  <diagram name="Page-1" id="PlHeshnkqyI9LTCzySUf">
    <mxGraphModel dx="2276" dy="781" grid="1" gridSize="10" guides="1" tooltips="1" connect="1" arrows="1" fold="1" page="1" pageScale="1" pageWidth="850" pageHeight="1100" math="0" shadow="0">
      <root>
        <mxCell id="0" />
        <mxCell id="1" parent="0" />
        <mxCell id="cCdaDrkrxBN9BAhdTQBS-9" value="" style="rounded=0;whiteSpace=wrap;html=1;" parent="1" vertex="1">
          <mxGeometry x="-690" y="180" width="1200" height="740" as="geometry" />
        </mxCell>
        <mxCell id="cCdaDrkrxBN9BAhdTQBS-3" value="customer(CID,NameC,EmailC,PhoneC,city,street)" style="text;html=1;align=center;verticalAlign=middle;resizable=0;points=[];autosize=1;strokeColor=none;fillColor=none;fontSize=25;" parent="1" vertex="1">
          <mxGeometry x="-415" y="345" width="570" height="40" as="geometry" />
        </mxCell>
        <mxCell id="cCdaDrkrxBN9BAhdTQBS-11" value="Vendor(VID,NameV,EmailV,productList,phoneV)" style="text;html=1;align=center;verticalAlign=middle;resizable=0;points=[];autosize=1;strokeColor=none;fillColor=none;fontSize=25;" parent="1" vertex="1">
          <mxGeometry x="-415" y="260" width="560" height="40" as="geometry" />
        </mxCell>
        <mxCell id="cCdaDrkrxBN9BAhdTQBS-12" value="" style="endArrow=none;html=1;rounded=0;" parent="1" edge="1">
          <mxGeometry width="50" height="50" relative="1" as="geometry">
            <mxPoint x="-257" y="298" as="sourcePoint" />
            <mxPoint x="-310" y="298.00209085542053" as="targetPoint" />
          </mxGeometry>
        </mxCell>
        <mxCell id="SuYuuz7VyoWQfYu1FpmI-1" value="" style="endArrow=none;html=1;rounded=0;" edge="1" parent="1">
          <mxGeometry width="50" height="50" relative="1" as="geometry">
            <mxPoint x="-241" y="383" as="sourcePoint" />
            <mxPoint x="-294" y="383.00209085542053" as="targetPoint" />
          </mxGeometry>
        </mxCell>
        <mxCell id="SuYuuz7VyoWQfYu1FpmI-2" value="Product(PID,NameP,Price,Stock,VID)" style="text;html=1;align=center;verticalAlign=middle;resizable=0;points=[];autosize=1;strokeColor=none;fillColor=none;fontSize=25;" vertex="1" parent="1">
          <mxGeometry x="-404" y="450" width="440" height="40" as="geometry" />
        </mxCell>
        <mxCell id="SuYuuz7VyoWQfYu1FpmI-3" value="" style="endArrow=none;html=1;rounded=0;" edge="1" parent="1">
          <mxGeometry width="50" height="50" relative="1" as="geometry">
            <mxPoint x="-249" y="490" as="sourcePoint" />
            <mxPoint x="-302" y="490.00209085542053" as="targetPoint" />
          </mxGeometry>
        </mxCell>
        <mxCell id="SuYuuz7VyoWQfYu1FpmI-4" value="Order(NumOrder,PID,CID)" style="text;html=1;align=center;verticalAlign=middle;resizable=0;points=[];autosize=1;strokeColor=none;fillColor=none;fontSize=25;" vertex="1" parent="1">
          <mxGeometry x="-396" y="540" width="320" height="40" as="geometry" />
        </mxCell>
        <mxCell id="SuYuuz7VyoWQfYu1FpmI-5" value="Payment(NumOrder,CID)" style="text;html=1;align=center;verticalAlign=middle;resizable=0;points=[];autosize=1;strokeColor=none;fillColor=none;fontSize=25;" vertex="1" parent="1">
          <mxGeometry x="-393" y="610" width="300" height="40" as="geometry" />
        </mxCell>
        <mxCell id="SuYuuz7VyoWQfYu1FpmI-6" value="" style="endArrow=none;html=1;rounded=0;" edge="1" parent="1">
          <mxGeometry width="50" height="50" relative="1" as="geometry">
            <mxPoint x="-290" y="660" as="sourcePoint" />
            <mxPoint x="-100" y="660" as="targetPoint" />
          </mxGeometry>
        </mxCell>
        <mxCell id="SuYuuz7VyoWQfYu1FpmI-7" value="" style="endArrow=none;html=1;rounded=0;" edge="1" parent="1">
          <mxGeometry width="50" height="50" relative="1" as="geometry">
            <mxPoint x="-324" y="578" as="sourcePoint" />
            <mxPoint x="-204" y="578" as="targetPoint" />
          </mxGeometry>
        </mxCell>
        <mxCell id="SuYuuz7VyoWQfYu1FpmI-8" value="Review(CID,Rating,Comm)" style="text;html=1;align=center;verticalAlign=middle;resizable=0;points=[];autosize=1;strokeColor=none;fillColor=none;fontSize=25;" vertex="1" parent="1">
          <mxGeometry x="-371" y="680" width="320" height="40" as="geometry" />
        </mxCell>
        <mxCell id="SuYuuz7VyoWQfYu1FpmI-9" value="" style="endArrow=none;dashed=1;html=1;rounded=0;" edge="1" parent="1">
          <mxGeometry width="50" height="50" relative="1" as="geometry">
            <mxPoint x="-260" y="650" as="sourcePoint" />
            <mxPoint x="-200" y="650" as="targetPoint" />
          </mxGeometry>
        </mxCell>
        <mxCell id="SuYuuz7VyoWQfYu1FpmI-10" value="" style="endArrow=none;dashed=1;html=1;rounded=0;" edge="1" parent="1">
          <mxGeometry width="50" height="50" relative="1" as="geometry">
            <mxPoint x="-165" y="650" as="sourcePoint" />
            <mxPoint x="-105" y="650" as="targetPoint" />
          </mxGeometry>
        </mxCell>
        <mxCell id="SuYuuz7VyoWQfYu1FpmI-11" value="" style="endArrow=none;dashed=1;html=1;rounded=0;" edge="1" parent="1">
          <mxGeometry width="50" height="50" relative="1" as="geometry">
            <mxPoint x="-282" y="720" as="sourcePoint" />
            <mxPoint x="-222" y="720" as="targetPoint" />
          </mxGeometry>
        </mxCell>
        <mxCell id="SuYuuz7VyoWQfYu1FpmI-12" value="" style="endArrow=none;html=1;rounded=0;" edge="1" parent="1">
          <mxGeometry width="50" height="50" relative="1" as="geometry">
            <mxPoint x="-270" y="730" as="sourcePoint" />
            <mxPoint x="-80" y="730" as="targetPoint" />
          </mxGeometry>
        </mxCell>
        <mxCell id="SuYuuz7VyoWQfYu1FpmI-13" value="" style="endArrow=none;dashed=1;html=1;rounded=0;" edge="1" parent="1">
          <mxGeometry width="50" height="50" relative="1" as="geometry">
            <mxPoint x="-208" y="721" as="sourcePoint" />
            <mxPoint x="-148" y="721" as="targetPoint" />
          </mxGeometry>
        </mxCell>
        <mxCell id="SuYuuz7VyoWQfYu1FpmI-14" value="" style="endArrow=none;dashed=1;html=1;rounded=0;" edge="1" parent="1">
          <mxGeometry width="50" height="50" relative="1" as="geometry">
            <mxPoint x="-131" y="720" as="sourcePoint" />
            <mxPoint x="-71" y="720" as="targetPoint" />
          </mxGeometry>
        </mxCell>
        <mxCell id="SuYuuz7VyoWQfYu1FpmI-15" value="" style="endArrow=none;dashed=1;html=1;rounded=0;" edge="1" parent="1">
          <mxGeometry width="50" height="50" relative="1" as="geometry">
            <mxPoint x="-193" y="578" as="sourcePoint" />
            <mxPoint x="-150" y="578" as="targetPoint" />
          </mxGeometry>
        </mxCell>
        <mxCell id="SuYuuz7VyoWQfYu1FpmI-16" value="" style="endArrow=none;dashed=1;html=1;rounded=0;" edge="1" parent="1">
          <mxGeometry width="50" height="50" relative="1" as="geometry">
            <mxPoint x="-30" y="490" as="sourcePoint" />
            <mxPoint x="20" y="490" as="targetPoint" />
          </mxGeometry>
        </mxCell>
        <mxCell id="SuYuuz7VyoWQfYu1FpmI-17" value="" style="curved=1;endArrow=classic;html=1;rounded=0;entryX=0.236;entryY=1.125;entryDx=0;entryDy=0;entryPerimeter=0;strokeColor=#00CC00;" edge="1" parent="1">
          <mxGeometry width="50" height="50" relative="1" as="geometry">
            <mxPoint x="21" y="488" as="sourcePoint" />
            <mxPoint x="-251.83999999999992" y="303" as="targetPoint" />
            <Array as="points">
              <mxPoint x="521" y="368" />
              <mxPoint x="211" y="328" />
              <mxPoint x="71" y="328" />
              <mxPoint x="-79" y="338" />
            </Array>
          </mxGeometry>
        </mxCell>
        <mxCell id="SuYuuz7VyoWQfYu1FpmI-18" value="HAS" style="edgeLabel;html=1;align=center;verticalAlign=middle;resizable=0;points=[];" vertex="1" connectable="0" parent="SuYuuz7VyoWQfYu1FpmI-17">
          <mxGeometry x="0.3743" relative="1" as="geometry">
            <mxPoint as="offset" />
          </mxGeometry>
        </mxCell>
        <mxCell id="SuYuuz7VyoWQfYu1FpmI-19" value="" style="endArrow=none;dashed=1;html=1;rounded=0;" edge="1" parent="1">
          <mxGeometry width="50" height="50" relative="1" as="geometry">
            <mxPoint x="-141" y="578" as="sourcePoint" />
            <mxPoint x="-98" y="578" as="targetPoint" />
          </mxGeometry>
        </mxCell>
        <mxCell id="SuYuuz7VyoWQfYu1FpmI-20" value="" style="curved=1;endArrow=classic;html=1;rounded=0;exitX=0.897;exitY=1.075;exitDx=0;exitDy=0;exitPerimeter=0;strokeColor=#00CC00;" edge="1" parent="1" source="SuYuuz7VyoWQfYu1FpmI-4">
          <mxGeometry width="50" height="50" relative="1" as="geometry">
            <mxPoint x="-150" y="530" as="sourcePoint" />
            <mxPoint x="-270" y="390" as="targetPoint" />
            <Array as="points">
              <mxPoint x="-530" y="620" />
              <mxPoint x="-410" y="460" />
              <mxPoint x="-400" y="420" />
              <mxPoint x="-350" y="410" />
              <mxPoint x="-330" y="420" />
              <mxPoint x="-320" y="420" />
              <mxPoint x="-340" y="370" />
              <mxPoint x="-300" y="430" />
              <mxPoint x="-280" y="420" />
            </Array>
          </mxGeometry>
        </mxCell>
        <mxCell id="SuYuuz7VyoWQfYu1FpmI-21" value="ORDER" style="edgeLabel;html=1;align=center;verticalAlign=middle;resizable=0;points=[];" vertex="1" connectable="0" parent="SuYuuz7VyoWQfYu1FpmI-20">
          <mxGeometry x="0.3325" y="4" relative="1" as="geometry">
            <mxPoint x="1" as="offset" />
          </mxGeometry>
        </mxCell>
        <mxCell id="SuYuuz7VyoWQfYu1FpmI-22" value="" style="curved=1;endArrow=classic;html=1;rounded=0;exitX=0.681;exitY=1.075;exitDx=0;exitDy=0;exitPerimeter=0;strokeColor=#2137FF;" edge="1" parent="1" source="SuYuuz7VyoWQfYu1FpmI-4">
          <mxGeometry width="50" height="50" relative="1" as="geometry">
            <mxPoint x="-150" y="630" as="sourcePoint" />
            <mxPoint x="-270" y="490" as="targetPoint" />
            <Array as="points">
              <mxPoint x="-100" y="630" />
              <mxPoint x="50" y="540" />
              <mxPoint x="-40" y="520" />
              <mxPoint x="-100" y="510" />
              <mxPoint x="-150" y="540" />
            </Array>
          </mxGeometry>
        </mxCell>
        <mxCell id="SuYuuz7VyoWQfYu1FpmI-23" value="" style="curved=1;endArrow=classic;html=1;rounded=0;strokeColor=#00CC00;" edge="1" parent="1">
          <mxGeometry width="50" height="50" relative="1" as="geometry">
            <mxPoint x="-129" y="666" as="sourcePoint" />
            <mxPoint x="-269" y="386" as="targetPoint" />
            <Array as="points">
              <mxPoint x="-79" y="676" />
              <mxPoint x="441" y="626" />
              <mxPoint x="201" y="446" />
              <mxPoint x="21" y="416" />
              <mxPoint x="-49" y="426" />
              <mxPoint x="-119" y="426" />
              <mxPoint x="-159" y="466" />
            </Array>
          </mxGeometry>
        </mxCell>
        <mxCell id="SuYuuz7VyoWQfYu1FpmI-24" value="PAY" style="edgeLabel;html=1;align=center;verticalAlign=middle;resizable=0;points=[];" vertex="1" connectable="0" parent="SuYuuz7VyoWQfYu1FpmI-23">
          <mxGeometry x="-0.0245" y="9" relative="1" as="geometry">
            <mxPoint y="1" as="offset" />
          </mxGeometry>
        </mxCell>
        <mxCell id="SuYuuz7VyoWQfYu1FpmI-25" value="" style="curved=1;endArrow=classic;html=1;rounded=0;exitX=0.473;exitY=1.125;exitDx=0;exitDy=0;exitPerimeter=0;strokeColor=#00CC00;" edge="1" parent="1">
          <mxGeometry width="50" height="50" relative="1" as="geometry">
            <mxPoint x="-260.0999999999999" y="659" as="sourcePoint" />
            <mxPoint x="-289" y="584" as="targetPoint" />
            <Array as="points">
              <mxPoint x="-299" y="674" />
              <mxPoint x="-449" y="654" />
              <mxPoint x="-339" y="584" />
            </Array>
          </mxGeometry>
        </mxCell>
        <mxCell id="SuYuuz7VyoWQfYu1FpmI-26" value="HAS" style="edgeLabel;html=1;align=center;verticalAlign=middle;resizable=0;points=[];" vertex="1" connectable="0" parent="SuYuuz7VyoWQfYu1FpmI-25">
          <mxGeometry x="-0.6429" y="-6" relative="1" as="geometry">
            <mxPoint as="offset" />
          </mxGeometry>
        </mxCell>
        <mxCell id="SuYuuz7VyoWQfYu1FpmI-27" value="OIncludeP(PID,NumOrder)" style="text;html=1;align=center;verticalAlign=middle;resizable=0;points=[];autosize=1;strokeColor=none;fillColor=none;fontSize=25;" vertex="1" parent="1">
          <mxGeometry x="-387" y="740" width="320" height="40" as="geometry" />
        </mxCell>
        <mxCell id="SuYuuz7VyoWQfYu1FpmI-28" value="" style="endArrow=none;dashed=1;html=1;rounded=0;" edge="1" parent="1">
          <mxGeometry width="50" height="50" relative="1" as="geometry">
            <mxPoint x="-257" y="780" as="sourcePoint" />
            <mxPoint x="-197" y="780" as="targetPoint" />
          </mxGeometry>
        </mxCell>
        <mxCell id="SuYuuz7VyoWQfYu1FpmI-29" value="" style="endArrow=none;dashed=1;html=1;rounded=0;" edge="1" parent="1">
          <mxGeometry width="50" height="50" relative="1" as="geometry">
            <mxPoint x="-165" y="780" as="sourcePoint" />
            <mxPoint x="-105" y="780" as="targetPoint" />
          </mxGeometry>
        </mxCell>
        <mxCell id="SuYuuz7VyoWQfYu1FpmI-30" value="" style="endArrow=none;html=1;rounded=0;" edge="1" parent="1">
          <mxGeometry width="50" height="50" relative="1" as="geometry">
            <mxPoint x="-267" y="785" as="sourcePoint" />
            <mxPoint x="-77" y="785" as="targetPoint" />
          </mxGeometry>
        </mxCell>
        <mxCell id="SuYuuz7VyoWQfYu1FpmI-31" value="" style="curved=1;endArrow=classic;html=1;rounded=0;" edge="1" parent="1">
          <mxGeometry width="50" height="50" relative="1" as="geometry">
            <mxPoint x="-220" y="790" as="sourcePoint" />
            <mxPoint x="-280" y="490" as="targetPoint" />
            <Array as="points">
              <mxPoint x="-415" y="780" />
              <mxPoint x="-465" y="730" />
              <mxPoint x="-450" y="610" />
              <mxPoint x="-400" y="540" />
            </Array>
          </mxGeometry>
        </mxCell>
        <mxCell id="SuYuuz7VyoWQfYu1FpmI-32" value="INCLUDE" style="edgeLabel;html=1;align=center;verticalAlign=middle;resizable=0;points=[];" vertex="1" connectable="0" parent="SuYuuz7VyoWQfYu1FpmI-31">
          <mxGeometry x="-0.2163" relative="1" as="geometry">
            <mxPoint as="offset" />
          </mxGeometry>
        </mxCell>
        <mxCell id="SuYuuz7VyoWQfYu1FpmI-34" value="" style="curved=1;endArrow=classic;html=1;rounded=0;" edge="1" parent="1">
          <mxGeometry width="50" height="50" relative="1" as="geometry">
            <mxPoint x="-100" y="790" as="sourcePoint" />
            <mxPoint x="-240" y="650" as="targetPoint" />
            <Array as="points">
              <mxPoint x="440" y="840" />
              <mxPoint x="110" y="680" />
              <mxPoint y="690" />
              <mxPoint x="-120" y="680" />
            </Array>
          </mxGeometry>
        </mxCell>
        <mxCell id="SuYuuz7VyoWQfYu1FpmI-35" value="include" style="edgeLabel;html=1;align=center;verticalAlign=middle;resizable=0;points=[];" vertex="1" connectable="0" parent="SuYuuz7VyoWQfYu1FpmI-34">
          <mxGeometry x="0.1528" y="-1" relative="1" as="geometry">
            <mxPoint as="offset" />
          </mxGeometry>
        </mxCell>
        <mxCell id="SuYuuz7VyoWQfYu1FpmI-36" value="" style="curved=1;endArrow=classic;html=1;rounded=0;entryX=0.202;entryY=0.975;entryDx=0;entryDy=0;entryPerimeter=0;strokeColor=#00CC00;" edge="1" parent="1" target="cCdaDrkrxBN9BAhdTQBS-3">
          <mxGeometry width="50" height="50" relative="1" as="geometry">
            <mxPoint x="-260" y="720" as="sourcePoint" />
            <mxPoint x="-425" y="630" as="targetPoint" />
            <Array as="points">
              <mxPoint x="-370" y="730" />
              <mxPoint x="-500" y="720" />
              <mxPoint x="-560" y="520" />
              <mxPoint x="-490" y="360" />
            </Array>
          </mxGeometry>
        </mxCell>
        <mxCell id="SuYuuz7VyoWQfYu1FpmI-37" value="Comm" style="edgeLabel;html=1;align=center;verticalAlign=middle;resizable=0;points=[];" vertex="1" connectable="0" parent="SuYuuz7VyoWQfYu1FpmI-36">
          <mxGeometry x="-0.3181" y="-17" relative="1" as="geometry">
            <mxPoint as="offset" />
          </mxGeometry>
        </mxCell>
      </root>
    </mxGraphModel>
  </diagram>
</mxfile>
